<?xml version="1.0" encoding="UTF-8"?>
<svg id="Layer_1" xmlns="http://www.w3.org/2000/svg" version="1.1" viewBox="0 0 973.79 350.44">
  <!-- Generator: Adobe Illustrator 29.8.2, SVG Export Plug-In . SVG Version: 2.1.1 Build 3)  -->
  <defs>
    <style>
      .st0 {
        fill: #08519e;
      }
    </style>
  </defs>
  <g>
    <g>
      <path d="M412.75,200.64l-.1,5.05c0,1.5.2,2.63.6,3.36.4.74,1.05,1.34,1.94,1.81.89.46,1.99.69,3.29.69.49,0,1-.05,1.53-.16.52-.1,1.06-.25,1.63-.44l2.55-2.99-.76-.91c-.47.4-.95.7-1.43.9-.48.2-.98.3-1.48.3-.82,0-1.49-.21-2.03-.63s-.88-1.01-1.06-1.76-.26-2.47-.26-5.14v-10.28h.91l5.03-.03,1.08.03.28-2.7-2.09.11c-1.34.05-3.08.08-5.21.08.16-5.08.3-8.3.44-9.66l-.68-.52c-.89.52-2.36,1.21-4.39,2.07.12,2.92.19,5.62.21,8.11-1.27.63-2.66,1.23-4.16,1.81v1.13c1.43-.12,2.82-.18,4.16-.18v9.95h0Z"/>
      <path d="M435.2,211.55c.84,0,1.49-.08,1.96-.22.47-.15.95-.41,1.44-.78l5.42-4.13c.02.76.03,1.52.03,2.27l-.03,2.33c1.64-.12,2.95-.18,3.92-.18.79,0,2.18.06,4.17.18v-1.73h-2.04c-.7,0-1.14-.24-1.31-.73-.18-.49-.28-3.08-.31-7.77-.06-4.97-.19-8.08-.39-9.34-.3-1.67-1.18-3.05-2.66-4.13-1.47-1.08-3.42-1.62-5.83-1.62-1.1,0-2.13.14-3.1.42s-2.1.79-3.39,1.52l-2.85,1.62.03,1.81-.03,1.75,1.47.39c.42-1.14.88-2.34,1.39-3.59.63-.41,1.31-.72,2.04-.92.73-.21,1.52-.31,2.36-.31,2.2,0,3.89.69,5.08,2.07.94,1.1,1.43,2.76,1.47,4.97-5.69,1.01-9.32,1.83-10.88,2.46s-2.77,1.6-3.61,2.92c-.85,1.32-1.27,2.85-1.27,4.61,0,1.87.59,3.35,1.78,4.46,1.18,1.11,2.9,1.66,5.16,1.66h-.02ZM434.78,199.94c1.31-.91,4.39-1.89,9.24-2.94l-.06,1.28.06,5.8c-1.09,1.45-2.22,2.53-3.42,3.27-1.2.73-2.45,1.1-3.76,1.1-1.19,0-2.16-.39-2.9-1.16-.75-.78-1.13-1.8-1.13-3.1,0-1.91.65-3.33,1.96-4.24h.01Z"/>
      <path d="M460.03,175.9c.26.7.39,3.94.39,9.74v15.64c0,4.48-.12,6.97-.37,7.47-.24.51-1.04.76-2.38.76h-1.55v1.51l6.98-.18c.81,0,2.47.04,4.98.13l1.42.05v-1.51h-1.6c-1.46,0-2.34-.28-2.63-.84-.28-.56-.43-3.04-.43-7.44v-3.32h.34c1.74,1.54,4.02,3.71,6.82,6.52,3.84,3.84,6.26,6.18,7.29,7.01,1.81-.43,3.48-.99,4.99-1.67v-1.18c-.57-.07-1.02-.17-1.33-.29-.32-.13-.69-.37-1.12-.73-.72-.58-2.82-2.47-6.31-5.69-.75-.68-2.77-2.72-6.04-6.13,4.38-3.63,7.52-6,9.42-7.14.96-.57,1.74-.86,2.35-.86h.94v-1.52h-5.28l-3.76,3.53c-2.04,1.96-3.34,3.18-3.92,3.67-1.11.94-2.47,2.01-4.05,3.19l-.34-.18v-10.51c.07-6.64.12-10.29.16-10.95l.13-2.62c0-.35-.14-.52-.42-.52l-2.65.83c-2.73.72-4.83,1.09-6.3,1.09v1.52h2.23c1.2,0,1.88.21,2.04.63h0Z"/>
      <path d="M494.04,179.96c.81,0,1.49-.29,2.07-.87.57-.57.86-1.27.86-2.09s-.29-1.52-.86-2.11c-.58-.59-1.27-.88-2.07-.88s-1.51.29-2.09.88c-.57.58-.86,1.29-.86,2.11s.29,1.52.86,2.09c.58.58,1.28.87,2.09.87Z"/>
      <path d="M500.75,211.03v-1.51l-1.78-.24c-1-.12-1.62-.3-1.89-.55-.26-.25-.43-.68-.5-1.31-.16-1.6-.24-3.54-.24-5.81,0-2.42.06-6.19.19-11.28.03-1.57.11-3.01.23-4.32l-.63-.39c-1.59.62-2.88,1.06-3.89,1.32-1,.26-2.57.55-4.7.86v1.52h1.96c.95,0,1.55.11,1.82.34.27.23.42.61.46,1.16.09,1.47.13,3.56.13,6.27,0,3.91-.04,6.97-.13,9.19-.05,1.44-.18,2.28-.38,2.53s-.73.41-1.61.49l-2.25.24v1.51c2.1-.12,4.17-.18,6.23-.18s4.41.06,6.96.18l.02-.02Z"/>
      <path d="M534.48,209.51h-1.87c-.96,0-1.6-.28-1.93-.84-.24-.44-.36-2.08-.36-4.93l.1-8.24c0-2.58-.29-4.48-.89-5.69-.59-1.21-1.58-2.2-2.94-2.96-1.36-.76-2.98-1.14-4.85-1.14-1.15,0-2.31.19-3.46.58-.53.19-1.02.5-1.5.92l-3.96,3.51.06-3.53.03-.99c0-.4-.14-.6-.42-.6-.14,0-.29.03-.44.1-1.48.61-2.81,1.06-4,1.36s-2.52.53-4.02.71v1.52h1.88c1.14,0,1.82.1,2.07.31.25.21.39.59.42,1.15.07,1.69.11,4.03.11,7.01,0,6.64-.11,10.26-.33,10.86s-.97.9-2.26.9h-1.88v1.51c2.36-.12,4.47-.18,6.32-.18,1.75,0,4.1.06,7.06.18v-1.51h-1.87c-1,0-1.72-.2-2.16-.6-.23-.21-.35-.72-.37-1.55-.05-2.74-.08-5.71-.08-8.9,0-2.88.09-4.66.26-5.34.28-1.03,1.01-1.97,2.19-2.83s2.62-1.28,4.32-1.28c1.36,0,2.53.3,3.5.89s1.66,1.38,2.07,2.36c.41.98.62,2.64.62,4.97,0,5.79-.17,10.39-.5,13.8,1.51-.12,2.93-.18,4.25-.18s2.97.06,4.83.18v-1.53Z"/>
      <path d="M538.33,217.86c0,2.29.97,4.21,2.91,5.77,1.93,1.56,4.7,2.35,8.3,2.35,2.95,0,5.56-.54,7.83-1.63,2.27-1.09,4-2.52,5.18-4.31s1.78-3.67,1.78-5.62c0-1.4-.26-2.65-.79-3.76s-1.15-1.89-1.89-2.34c-.73-.44-1.79-.67-3.17-.67-.96,0-2.51.05-4.66.15-1.5.06-2.65.09-3.46.09-2.09,0-3.48-.19-4.16-.57s-1.02-.9-1.02-1.57c0-.4.16-.81.46-1.22.3-.42,1.03-1.05,2.18-1.9l1.23.03c2.03,0,3.91-.44,5.65-1.33,1.75-.88,3.09-2.05,4.04-3.48.94-1.45,1.42-2.95,1.42-4.5,0-.72-.2-1.63-.6-2.75h4.84c.4-.83.86-1.62,1.39-2.38l-.29-.56c-1.26.16-3.02.24-5.29.24h-2.2c-1.04-.84-2.07-1.43-3.08-1.78s-2.17-.52-3.49-.52c-2.09,0-4.27.53-6.52,1.6-1.76.84-3.1,1.98-4.01,3.43-.91,1.45-1.36,3.06-1.36,4.82,0,2.01.61,3.66,1.83,4.95.93.96,2.43,1.71,4.52,2.23l-2.53,1.8c-.93.63-1.5,1.16-1.73,1.59-.4.71-.6,1.44-.6,2.17,0,.61.21,1.11.62,1.5s1.33.82,2.76,1.29c-1.24.87-2.77,1.74-4.58,2.59-1.01,1.45-1.52,2.88-1.52,4.29h0ZM545.78,199.07c-1.11-1.32-1.66-3.15-1.66-5.48,0-1.93.51-3.43,1.54-4.52,1.02-1.09,2.37-1.63,4.05-1.63s3.11.67,4.22,2c1.12,1.33,1.68,3.09,1.68,5.28,0,2-.52,3.55-1.56,4.66s-2.4,1.67-4.08,1.67-3.08-.66-4.19-1.98h0ZM543.25,214.1c.32-.58,1.2-1.34,2.67-2.28.45-.28,1.3-.42,2.54-.42h6.11c1.43,0,2.35.06,2.74.19.79.24,1.46.8,2.03,1.65.57.85.85,1.85.85,2.99,0,1.33-.41,2.62-1.22,3.87s-1.94,2.23-3.41,2.95-3.16,1.08-5.1,1.08c-2.51,0-4.47-.62-5.88-1.86-1.41-1.25-2.11-2.82-2.11-4.72,0-1.38.26-2.53.78-3.44h0Z"/>
      <path d="M596.82,211.55c3.63,0,6.75-1.14,9.34-3.43,2.92-2.55,4.37-5.99,4.37-10.31,0-3.67-1.12-6.6-3.35-8.8-2.24-2.2-5.21-3.3-8.93-3.3-2.57,0-4.86.55-6.87,1.65-2.02,1.1-3.58,2.62-4.7,4.57-1.12,1.95-1.67,4.12-1.67,6.53,0,4.03,1.1,7.22,3.28,9.57,2.19,2.35,5.03,3.52,8.52,3.52h0ZM591.01,191.42c.52-1.17,1.34-2.1,2.44-2.8,1.11-.7,2.35-1.05,3.73-1.05,1.55,0,2.96.44,4.21,1.32,1.26.88,2.27,2.29,3.04,4.22.76,1.93,1.15,4.22,1.15,6.85,0,3.27-.65,5.71-1.95,7.31-1.3,1.61-3,2.41-5.12,2.41-2.78,0-4.9-1.28-6.37-3.84-1.48-2.56-2.21-5.64-2.21-9.24,0-1.87.36-3.6,1.08-5.19h0Z"/>
      <path d="M619.02,189.69c.17.33.25,1.97.25,4.92l-.08,4.22c-.05,1.57-.08,2.95-.08,4.13,0,2.29.25,3.96.77,5.01.51,1.06,1.34,1.92,2.47,2.58,1.13.67,2.48,1,4.05,1,1.83,0,3.36-.27,4.61-.8s2.47-1.45,3.67-2.76l1.54-1.67-.28,4.71c1.13-.12,2.26-.18,3.4-.18,1.52,0,3.37.06,5.55.18v-1.51h-1.52c-1.28,0-2.1-.27-2.49-.81-.26-.37-.39-1.82-.39-4.37,0-4.54.13-9.79.39-15.76l.1-2.43c0-.33-.15-.5-.44-.5-.14,0-.29.04-.47.13-1.4.56-2.72.98-3.98,1.26s-2.79.52-4.58.73v1.44h2.07c1.4,0,2.18.18,2.36.55.19.45.28,3.26.28,8.43,0,3.08-.11,4.92-.34,5.53-.42,1.06-1.3,2.12-2.65,3.17-1.35,1.05-2.84,1.57-4.46,1.57-1.2,0-2.22-.29-3.06-.88-.83-.58-1.39-1.32-1.64-2.2-.26-.88-.39-2.91-.39-6.08s.12-6.62.37-10.32l.19-2.67c0-.44-.15-.65-.45-.65l-2.18.81c-2.02.66-4.21,1.1-6.59,1.31v1.44h2.33c.95,0,1.5.17,1.66.5v-.03Z"/>
      <path d="M663.18,211.03v-1.51h-1.57c-1.29,0-2.27-.19-2.93-.55-.28-.16-.45-.54-.52-1.15-.2-1.65-.29-3.7-.29-6.12,0-3.67.14-6.14.44-7.4.29-1.26.88-2.23,1.76-2.93s1.83-1.05,2.85-1.05c.77,0,1.43.18,1.97.55s1.02.99,1.42,1.88h1.18c.04-2.55.19-4.53.47-5.94l.03-.26c0-.22-.12-.39-.37-.5-.51-.23-1.24-.34-2.21-.34s-1.81.24-2.65.71-1.75,1.34-2.73,2.62c-.82,1.08-1.58,1.96-2.28,2.62l.1-5.2c0-.37-.04-.6-.1-.71-.07-.11-.2-.16-.39-.16-.16,0-.36.06-.6.18-1.03.47-2.21.86-3.54,1.16-1.32.31-2.83.56-4.53.75v1.52h2.2c1.2,0,1.92.24,2.14.71.33.73.5,3.2.5,7.41,0,3.45-.06,6.43-.18,8.95-.07,1.43-.22,2.27-.46,2.54s-.8.43-1.69.5l-2.51.21v1.51c2.27-.12,4.56-.18,6.88-.18s4.92.06,7.59.18h.02Z"/>
      <path d="M417.83,238.12c-1.5.12-2.88.18-4.13.18-1.17,0-2.86-.06-5.08-.18v1.65h1.62c.82,0,1.46.15,1.91.44.45.3.8.64,1.03,1.01.23.38.37,1.07.4,2.08.05,2.39.08,4.81.08,7.25v13.01c0,3.3-.09,5.91-.28,7.83-.09.93-.3,1.54-.66,1.86-.35.32-1.09.47-2.22.47h-1.89v1.65c3.83-.12,6.28-.18,7.34-.18,1.54,0,3.26.06,5.17.18v-1.65l-1.68-.13c-1.39-.12-2.22-.32-2.51-.59s-.5-1.02-.62-2.26c-.16-1.62-.24-4.5-.24-8.62v-18.1l18.82,23.25c2.13,2.62,4.16,5,6.1,7.15.35.38.72.66,1.1.83s1.76.43,4.13.8c-.28-4.41-.42-8.21-.42-11.39v-11.81c0-6.93.08-10.75.24-11.47.24-1.08,1.18-1.62,2.8-1.62h2.02v-1.65c-2.57.12-4.66.18-6.29.18s-3.73-.06-6.54-.18v1.65l1.96.19c1.76.17,2.77.59,3.02,1.24.25.66.38,4.5.38,11.53v16.81c-1.43-1.54-3.76-4.27-6.99-8.22l-8.95-11c-1.64-2.02-3.23-4.04-4.76-6.03-1.52-2-3.15-4.05-4.88-6.17h.02Z"/>
      <path d="M466.85,275.37v-1.65l-2.51-.28c-.89-.11-1.45-.25-1.66-.42-.22-.18-.33-.47-.33-.87,0-.63.58-2.34,1.75-5.13l1.78-4.22h15.14l2.87,7.28c.53,1.33.79,2.15.79,2.46s-.13.54-.39.73c-.18.12-.72.22-1.65.29l-2.59.16v1.65c3.19-.12,5.75-.18,7.67-.18,2.06,0,4.22.06,6.49.18v-1.65c-1.34-.07-2.21-.2-2.59-.38-.38-.19-.72-.49-1.02-.91-.3-.43-.89-1.69-1.78-3.78l-13.25-30.82h-1.78c-.7,1.96-2.01,5.1-3.93,9.43l-7.19,16.31c-1.29,2.92-2.56,5.63-3.8,8.14-.4.86-.78,1.4-1.14,1.61s-1.15.35-2.37.38l-.78.03v1.65c1.9-.12,4.11-.18,6.62-.18,2.09,0,3.98.06,5.65.18h0ZM473.45,244.93l6.59,15.73h-13.19l6.6-15.73h0Z"/>
      <path d="M510.61,240.5c.12,2.46.19,5.16.19,8.11v14.95c0,3.23-.09,5.87-.26,7.91-.09.89-.3,1.49-.66,1.79-.35.3-1.1.45-2.25.45h-2.2v1.65c3.04-.12,5.64-.18,7.8-.18s4.77.06,7.85.18v-1.65h-1.96c-1.71,0-2.7-.28-2.98-.85s-.42-3.63-.42-9.18v-14.92c0-2.89.09-5.65.29-8.27h2.04c2.44,0,4.62.07,6.54.21.66.06,1.09.19,1.28.41s.34.92.44,2.11l.26,3.43h1.65c.05-2.74.24-5.58.57-8.53l-14.48.18c-1.65,0-7.19-.06-16.62-.18.21,2.36.32,4.16.32,5.42l-.05,3.12h1.65l.37-3.51c.14-1.36.42-2.14.86-2.34.44-.2,2.81-.3,7.11-.3h2.66Z"/>
      <path d="M542.92,242.46c.05-1.2.24-1.95.55-2.25.32-.29,1.1-.44,2.34-.44h2.03v-1.65c-1.92.12-4.06.18-6.42.18-2.83,0-5.7-.06-8.6-.18v1.65h2.12c1.4,0,2.23.36,2.51,1.08.28.71.42,4.56.42,11.54v8.87c0,6.74-.16,10.5-.48,11.28-.33.79-1.3,1.18-2.92,1.18h-1.65v1.65c2.38-.12,5.04-.18,8-.18,2.54,0,4.88.06,7.03.18v-1.65h-1.74c-1.61,0-2.57-.34-2.87-1.03-.29-.69-.44-4.42-.44-11.22v-9.03c0-4.79.04-8.11.13-9.98h-.01Z"/>
      <path d="M586.61,242.47c-3.43-3.25-8.17-4.88-14.21-4.88s-11.1,1.75-14.8,5.26c-3.7,3.5-5.55,8.13-5.55,13.87,0,3.8.8,7.18,2.38,10.13,1.59,2.95,3.76,5.19,6.5,6.73s6.01,2.31,9.8,2.31c6.06,0,11.08-1.95,15.06-5.87,3.98-3.91,5.97-8.77,5.97-14.58,0-5.39-1.72-9.72-5.15-12.97h0ZM584.49,266.23c-1.16,2.46-2.75,4.31-4.79,5.55-2.03,1.24-4.39,1.86-7.1,1.86-2.92,0-5.51-.73-7.78-2.19s-4.08-3.64-5.44-6.57c-1.35-2.93-2.03-6.36-2.03-10.3,0-2.97.58-5.58,1.73-7.84,1.15-2.26,2.74-3.97,4.77-5.14s4.44-1.76,7.24-1.76c3.05,0,5.7.67,7.94,1.99,2.23,1.33,4,3.3,5.28,5.93,1.29,2.63,1.93,5.79,1.93,9.49s-.58,6.52-1.74,8.98h-.01Z"/>
      <path d="M633.34,276.05c-.28-4.41-.42-8.21-.42-11.39v-11.81c0-6.93.08-10.75.24-11.47.24-1.08,1.18-1.62,2.8-1.62h2.02v-1.65c-2.57.12-4.66.18-6.29.18s-3.73-.06-6.54-.18v1.65l1.96.19c1.76.17,2.77.59,3.02,1.24.25.66.38,4.5.38,11.53v16.81c-1.43-1.54-3.76-4.27-6.99-8.22l-8.95-11c-1.64-2.02-3.23-4.04-4.76-6.03-1.52-2-3.15-4.05-4.88-6.17-1.5.12-2.88.18-4.13.18-1.17,0-2.86-.06-5.08-.18v1.65h1.62c.82,0,1.46.15,1.91.44.45.3.8.64,1.03,1.01.23.38.37,1.07.4,2.08.05,2.39.08,4.81.08,7.25v13.01c0,3.3-.09,5.91-.28,7.83-.09.93-.3,1.54-.66,1.86-.35.32-1.09.47-2.22.47h-1.89v1.65c3.83-.12,6.28-.18,7.34-.18,1.54,0,3.26.06,5.17.18v-1.65l-1.68-.13c-1.39-.12-2.22-.32-2.51-.59s-.5-1.02-.62-2.26c-.16-1.62-.24-4.5-.24-8.62v-18.1l18.82,23.25c2.13,2.62,4.16,5,6.1,7.15.35.38.72.66,1.1.83s1.76.43,4.13.8h.02Z"/>
      <path d="M668.7,250.06c-1.1,0-2.13.14-3.1.42s-2.1.79-3.39,1.51l-2.85,1.62.03,1.81-.03,1.75,1.47.39c.42-1.14.88-2.34,1.39-3.59.63-.41,1.31-.71,2.04-.92.73-.21,1.52-.31,2.36-.31,2.2,0,3.89.69,5.08,2.07.94,1.1,1.43,2.76,1.47,4.98-5.69,1.01-9.32,1.83-10.88,2.46s-2.77,1.6-3.61,2.92c-.85,1.32-1.27,2.85-1.27,4.61,0,1.87.59,3.35,1.78,4.46,1.18,1.11,2.9,1.66,5.16,1.66.84,0,1.49-.08,1.96-.22.47-.15.95-.41,1.44-.78l5.42-4.13c.02.76.03,1.52.03,2.27l-.03,2.33c1.64-.12,2.95-.18,3.92-.18.79,0,2.18.06,4.17.18v-1.73h-2.04c-.7,0-1.14-.24-1.31-.73-.18-.49-.28-3.08-.31-7.77-.06-4.97-.19-8.08-.39-9.33-.3-1.67-1.18-3.05-2.66-4.13-1.47-1.08-3.42-1.62-5.83-1.62h-.02ZM673.15,268.41c-1.09,1.45-2.22,2.53-3.42,3.27-1.2.73-2.45,1.1-3.76,1.1-1.19,0-2.16-.39-2.9-1.16-.75-.78-1.13-1.8-1.13-3.1,0-1.91.65-3.33,1.96-4.24s4.39-1.89,9.24-2.94l-.06,1.28.06,5.8h.01Z"/>
      <path d="M701.52,274.89c2.67.67,5.08,1.01,7.23,1.01,3.37,0,6.06-.86,8.08-2.56,2.02-1.71,3.02-3.74,3.02-6.09,0-1.15-.24-2.17-.73-3.07-.49-.89-1.13-1.55-1.94-1.98-.8-.44-2.46-.91-4.97-1.42-3.41-.68-5.48-1.33-6.23-1.94-.75-.59-1.12-1.48-1.12-2.65s.47-2.24,1.42-3.05,2.22-1.22,3.8-1.22c1.2,0,2.34.26,3.4.79,1.06.52,1.79,1.11,2.2,1.76.29.49.46,1.5.5,3.03h1.57c.09-2.79.21-4.78.37-5.97-2.43-.98-4.87-1.46-7.32-1.46-3.09,0-5.48.72-7.17,2.18-1.69,1.45-2.53,3.33-2.53,5.66,0,1.24.28,2.29.84,3.17s1.4,1.57,2.52,2.1c1.12.52,3.41,1.14,6.88,1.83,1.87.38,3.13.9,3.79,1.55s1,1.5,1,2.57c0,1.34-.57,2.5-1.71,3.47-1.13.97-2.6,1.45-4.4,1.45-1.4,0-2.75-.26-4.07-.79s-2.2-1.07-2.66-1.63c-.25-.33-.37-1.18-.37-2.55v-1.71h-1.62l.03,1.26c0,.95-.08,2.27-.24,3.96-.05.66-.11,1.13-.18,1.39l-.08.37c0,.24.23.43.7.55h-.01Z"/>
      <path d="M728.52,264.98l-.1,5.05c0,1.5.2,2.63.6,3.36.4.74,1.05,1.34,1.94,1.81.89.46,1.99.69,3.29.69.49,0,1-.05,1.53-.16.52-.1,1.06-.25,1.63-.44l2.55-2.99-.76-.91c-.47.4-.95.7-1.43.9-.48.2-.98.3-1.48.3-.82,0-1.49-.21-2.03-.63s-.88-1.01-1.06-1.76-.26-2.47-.26-5.14v-10.28h.91l5.03-.03,1.08.03.28-2.69-2.09.1c-1.34.05-3.08.08-5.21.08.16-5.08.3-8.3.44-9.66l-.68-.52c-.89.52-2.36,1.21-4.39,2.07.12,2.92.19,5.62.21,8.11-1.27.63-2.66,1.23-4.16,1.81v1.12c1.43-.12,2.82-.18,4.16-.18v9.95h0Z"/>
      <path d="M755.58,275.89c1.62,0,3.2-.21,4.74-.63s3.03-1.04,4.48-1.88l.84-2.2-.44-.39c-1.18.8-2.38,1.41-3.58,1.81s-2.41.6-3.63.6c-2.72,0-4.92-.89-6.58-2.67-1.67-1.78-2.55-4.39-2.64-7.83h6.53c3.31,0,5.9-.07,7.77-.21,1.04-.08,2.14-.27,3.29-.55l.05-1.55c0-3.26-.9-5.8-2.71-7.62-1.81-1.81-4.25-2.72-7.34-2.72-2.04,0-4.15.6-6.31,1.8s-3.64,2.51-4.45,3.93c-1.22,2.14-1.83,4.68-1.83,7.62,0,3.84,1.09,6.88,3.26,9.12,2.18,2.24,5.03,3.36,8.57,3.36h-.02ZM750.6,254.06c1.17-1.43,2.73-2.15,4.68-2.15,1.26,0,2.37.28,3.33.85s1.63,1.28,2.02,2.13c.61,1.37.91,2.83.91,4.37v1.46c-1.22.12-2.49.19-3.8.19-3.26,0-6.24-.06-8.95-.19.04-3.02.64-5.25,1.81-6.67h0Z"/>
      <path d="M789.27,250.06c-1.38,0-2.58.17-3.61.5-.65.21-1.43.72-2.36,1.55l-3.66,3.25.03-1.86.08-2.78c0-.49-.14-.73-.42-.73l-1.6.63c-2.34.73-4.73,1.23-7.16,1.49v1.62h2.04c.99,0,1.63.12,1.9.35.27.24.44.72.51,1.45.14,1.52.21,3.67.21,6.47v16.07c0,5.57-.12,8.64-.37,9.22-.24.57-1.04.86-2.38.86h-1.91v1.47c2.62-.12,4.78-.19,6.48-.19,1.54,0,3.96.06,7.27.19v-1.47h-1.42c-1.24,0-2.05-.15-2.43-.45-.38-.31-.6-.8-.65-1.48-.11-1.55-.16-4.22-.16-8.01v-3.69c.99.45,1.94.8,2.85,1.03.9.24,1.77.36,2.58.36,1.05,0,1.97-.14,2.79-.43s1.88-.89,3.2-1.82l1.04-.76c1.87-1.17,2.93-1.86,3.19-2.07.79-.63,1.49-1.41,2.12-2.34.63-.94,1.16-2.14,1.59-3.61.44-1.47.66-2.97.66-4.49,0-3.03-.96-5.51-2.88-7.43s-4.42-2.88-7.53-2.88v-.02ZM792.92,270.08c-1.46,2.08-3.57,3.12-6.33,3.12-1.29,0-2.49-.26-3.61-.79-1.11-.52-2.23-1.41-3.34-2.67v-8.22c0-2.03.08-3.27.24-3.74.21-.63.69-1.31,1.44-2.06.75-.74,1.62-1.32,2.63-1.74s2.03-.63,3.07-.63c1.48,0,2.87.39,4.16,1.16,1.29.78,2.27,1.85,2.94,3.22s1.01,3.02,1.01,4.94c0,2.86-.73,5.33-2.2,7.41h0Z"/>
      <path d="M417.18,316.61c.16-5.08.3-8.3.44-9.66l-.68-.52c-.89.52-2.36,1.21-4.39,2.07.12,2.92.19,5.62.21,8.11-1.27.63-2.66,1.23-4.16,1.81v1.12c1.43-.12,2.82-.18,4.16-.18v9.95l-.1,5.05c0,1.5.2,2.63.6,3.36.4.74,1.05,1.34,1.94,1.81.89.46,1.99.69,3.29.69.49,0,1-.05,1.53-.16.52-.1,1.06-.25,1.63-.44l2.55-2.99-.76-.91c-.47.4-.95.7-1.43.9-.48.2-.98.3-1.48.3-.82,0-1.49-.21-2.03-.63s-.88-1.01-1.06-1.76-.26-2.47-.26-5.14v-10.28h.91l5.03-.03,1.08.03.28-2.69-2.09.1c-1.34.05-3.08.08-5.21.08h0Z"/>
      <path d="M441.62,314.39c-2.57,0-4.86.55-6.87,1.65-2.02,1.1-3.58,2.62-4.7,4.57-1.12,1.94-1.67,4.12-1.67,6.53,0,4.03,1.1,7.22,3.28,9.57,2.19,2.35,5.03,3.52,8.52,3.52s6.75-1.14,9.34-3.43c2.92-2.55,4.37-5.99,4.37-10.31,0-3.66-1.12-6.6-3.35-8.8-2.24-2.2-5.21-3.3-8.93-3.3h.01ZM446.99,335.96c-1.3,1.61-3,2.41-5.12,2.41-2.78,0-4.9-1.28-6.37-3.84-1.48-2.56-2.21-5.64-2.21-9.24,0-1.87.36-3.6,1.08-5.19.52-1.17,1.34-2.11,2.44-2.81,1.11-.7,2.35-1.05,3.73-1.05,1.55,0,2.96.44,4.21,1.32,1.26.88,2.27,2.29,3.04,4.22.76,1.93,1.15,4.21,1.15,6.85,0,3.27-.65,5.71-1.95,7.31v.02Z"/>
      <path d="M490.27,314.91v1.52h1.73c.75,0,1.31.12,1.66.37.36.24.54.56.54.97,0,.26-.05.61-.13,1.04-.22,1.06-.72,2.65-1.49,4.76l-4.01,10.71-5.4-13.69c-.8-1.95-1.58-4-2.33-6.12h-1.31c-1.1,2.75-2.08,5.1-2.93,7.02l-5.65,12.36c-2.98-9.95-4.47-15.36-4.47-16.21,0-.38.16-.66.47-.83.4-.25,1.14-.37,2.23-.37h1.41v-1.52c-2.83.12-4.96.18-6.41.18s-3.61-.06-6.39-.18v1.52h1.31c.58,0,1.09.15,1.54.45s.78.74,1.01,1.32l1.67,5.26c1.85,5.94,3.51,11.43,4.97,16.47h2.67c.65-1.91,1.31-3.67,1.98-5.28,1.52-3.55,3.49-7.91,5.93-13.08l3.33,8.41c1.76,4.46,3.04,7.77,3.82,9.95h2.54c1.15-3.82,2.75-8.14,4.82-12.97,2.46-5.79,3.96-8.99,4.5-9.61s1.12-.93,1.73-.93h1.18v-1.52c-1.43.12-2.92.18-4.45.18-1.76,0-3.79-.06-6.07-.18h0Z"/>
      <path d="M525.85,337.25c-.18-.49-.28-3.08-.31-7.77-.06-4.97-.19-8.08-.39-9.33-.3-1.67-1.18-3.05-2.66-4.13-1.47-1.08-3.42-1.62-5.83-1.62-1.1,0-2.13.14-3.1.42s-2.1.79-3.39,1.51l-2.85,1.62.03,1.81-.03,1.75,1.47.39c.42-1.14.88-2.34,1.39-3.59.63-.41,1.31-.71,2.04-.92.73-.21,1.52-.31,2.36-.31,2.2,0,3.89.69,5.08,2.07.94,1.1,1.43,2.76,1.47,4.98-5.69,1.01-9.32,1.83-10.88,2.46s-2.77,1.6-3.61,2.92-1.27,2.85-1.27,4.61c0,1.87.59,3.35,1.78,4.46,1.18,1.11,2.9,1.66,5.16,1.66.84,0,1.49-.08,1.96-.22.47-.15.95-.41,1.44-.78l5.42-4.13c.02.76.03,1.52.03,2.27l-.03,2.33c1.64-.12,2.95-.18,3.92-.18.79,0,2.18.06,4.17.18v-1.73h-2.04c-.7,0-1.14-.24-1.31-.73h-.02ZM521.11,332.75c-1.09,1.45-2.22,2.53-3.42,3.27-1.2.73-2.45,1.1-3.76,1.1-1.19,0-2.16-.39-2.9-1.16-.75-.78-1.13-1.8-1.13-3.1,0-1.91.65-3.33,1.96-4.24s4.39-1.89,9.24-2.94l-.06,1.28.06,5.8h.01Z"/>
      <path d="M549.52,314.39c-.93,0-1.81.23-2.65.7-.84.48-1.75,1.34-2.73,2.62-.82,1.08-1.58,1.95-2.28,2.62l.1-5.2c0-.37-.04-.6-.1-.71-.07-.1-.2-.16-.39-.16-.16,0-.36.06-.6.19-1.03.47-2.21.86-3.54,1.16-1.32.3-2.83.55-4.53.75v1.51h2.2c1.2,0,1.92.24,2.14.71.33.73.5,3.2.5,7.41,0,3.46-.06,6.44-.18,8.96-.07,1.43-.22,2.27-.46,2.54s-.8.43-1.69.5l-2.51.21v1.51c2.27-.12,4.56-.18,6.88-.18s4.92.06,7.59.18v-1.51h-1.57c-1.29,0-2.27-.19-2.93-.55-.28-.16-.45-.54-.52-1.15-.2-1.65-.29-3.7-.29-6.12,0-3.67.14-6.14.44-7.4.29-1.26.88-2.23,1.76-2.93.88-.69,1.83-1.04,2.85-1.04.77,0,1.43.19,1.97.55.55.37,1.02,1,1.42,1.89h1.18c.04-2.55.19-4.53.47-5.94l.03-.26c0-.23-.12-.39-.37-.5-.51-.22-1.24-.34-2.21-.34l.02-.02Z"/>
      <path d="M581.69,337.01c-.18-.34-.26-1.96-.26-4.87v-15.64l.06-2.25.1-6.97c.09-2.52.19-4.66.32-6.45l-.48-.32c-2.69,1.07-5.6,1.71-8.71,1.91v1.57h2.25c.87,0,1.43.14,1.68.42.24.28.36.97.36,2.07v9.5c-1.11-.54-2.2-.95-3.25-1.2-1.05-.26-2.08-.39-3.08-.39-1.46,0-3.06.42-4.78,1.28-2.25,1.13-3.91,2.07-4.97,2.81s-1.97,1.93-2.74,3.58c-.76,1.64-1.15,3.62-1.15,5.94,0,3.72.99,6.69,2.98,8.91,1.99,2.21,4.46,3.32,7.4,3.32,1.13,0,2.44-.24,3.92-.73,2.3-2.07,4.19-3.67,5.67-4.82-.07,2.18-.17,3.85-.28,5.03,1.91-.16,3.01-.23,3.31-.23,1.64,0,3.54.08,5.7.23v-1.51l-1.86-.24c-1.18-.16-1.91-.47-2.17-.94h-.02ZM577,326.89c0,2.66-.27,4.61-.81,5.85-.54,1.24-1.4,2.25-2.56,3.03-1.17.78-2.45,1.17-3.84,1.17-2.28,0-4.22-.93-5.81-2.8-1.6-1.86-2.39-4.42-2.39-7.69s.7-5.66,2.09-7.33c1.39-1.66,3.23-2.5,5.51-2.5,1.41,0,2.77.33,4.06.97s2.55,1.62,3.75,2.91v6.39h0Z"/>
      <path d="M607.22,326.52c-.8-.44-2.46-.91-4.97-1.42-3.41-.68-5.48-1.33-6.23-1.94-.75-.59-1.12-1.48-1.12-2.65s.47-2.24,1.42-3.05,2.22-1.22,3.8-1.22c1.2,0,2.34.26,3.4.79,1.06.52,1.79,1.11,2.2,1.76.29.49.46,1.5.5,3.03h1.57c.09-2.79.21-4.78.37-5.97-2.43-.98-4.87-1.46-7.32-1.46-3.09,0-5.48.72-7.17,2.18-1.69,1.45-2.53,3.33-2.53,5.66,0,1.24.28,2.29.84,3.17s1.4,1.57,2.52,2.1c1.12.52,3.41,1.14,6.88,1.83,1.87.38,3.13.9,3.79,1.55s1,1.5,1,2.57c0,1.34-.57,2.5-1.71,3.47-1.13.97-2.6,1.45-4.4,1.45-1.4,0-2.75-.26-4.07-.79s-2.2-1.07-2.66-1.63c-.25-.33-.37-1.18-.37-2.55v-1.71h-1.62l.03,1.26c0,.95-.08,2.27-.24,3.96-.05.66-.11,1.13-.18,1.39l-.08.37c0,.24.23.43.7.55,2.67.67,5.08,1.01,7.23,1.01,3.37,0,6.06-.86,8.08-2.56,2.02-1.71,3.02-3.74,3.02-6.09,0-1.15-.24-2.17-.73-3.07-.49-.89-1.13-1.55-1.94-1.98h-.01Z"/>
      <path d="M629.1,302.45c.21,2.36.32,4.16.32,5.42l-.05,3.12h1.65l.37-3.51c.14-1.36.42-2.14.86-2.34.44-.2,2.81-.3,7.11-.3h2.66c.12,2.46.19,5.16.19,8.11v14.95c0,3.23-.09,5.87-.26,7.91-.09.89-.3,1.49-.66,1.79-.35.3-1.1.45-2.25.45h-2.2v1.65c3.04-.12,5.64-.18,7.8-.18s4.77.06,7.85.18v-1.65h-1.96c-1.71,0-2.7-.28-2.98-.85s-.42-3.63-.42-9.18v-14.92c0-2.89.09-5.65.29-8.27h2.04c2.44,0,4.62.07,6.54.21.66.06,1.09.19,1.28.41s.34.92.44,2.11l.26,3.43h1.65c.05-2.74.24-5.58.57-8.53l-14.48.18c-1.65,0-7.19-.06-16.62-.18h0Z"/>
      <path d="M684.18,301.93c-6.17,0-11.1,1.75-14.8,5.26-3.7,3.5-5.55,8.13-5.55,13.87,0,3.8.8,7.18,2.38,10.13,1.59,2.95,3.76,5.19,6.5,6.73s6.01,2.31,9.8,2.31c6.06,0,11.08-1.95,15.06-5.87,3.98-3.91,5.97-8.77,5.97-14.58,0-5.39-1.72-9.72-5.15-12.97-3.43-3.25-8.17-4.88-14.21-4.88h0ZM696.28,330.57c-1.16,2.46-2.75,4.31-4.79,5.55-2.03,1.24-4.39,1.86-7.1,1.86-2.92,0-5.51-.73-7.78-2.19s-4.08-3.64-5.44-6.57c-1.35-2.93-2.03-6.36-2.03-10.3,0-2.97.58-5.58,1.73-7.84,1.15-2.26,2.74-3.97,4.77-5.14s4.44-1.76,7.24-1.76c3.05,0,5.7.67,7.94,1.99,2.23,1.33,4,3.3,5.28,5.93,1.29,2.63,1.93,5.79,1.93,9.49s-.58,6.52-1.74,8.98h-.01Z"/>
      <path d="M745.75,302.45c-2.86,6.46-5.42,11.99-7.65,16.58l-6.37,13.12-6.89-14.17c-2.76-5.65-5.2-10.83-7.31-15.53-1.83.12-3.25.18-4.24.18-.79,0-2.7-.06-5.74-.18v1.65h1.39c1.33,0,2.21.16,2.66.47.44.32.7.77.77,1.36.16,1.15.24,3.51.24,7.09v14.82c0,2.83-.11,5.46-.34,7.91-.09.87-.33,1.47-.71,1.8s-1.15.5-2.31.5h-1.7v1.65c3.29-.12,5.48-.18,6.58-.18,1.52,0,3.5.06,5.93.18v-1.65h-.97c-1.96,0-3.14-.32-3.51-.96-.38-.64-.56-3.31-.56-8.02v-20.24l9.38,19.42c3.06,6.43,4.91,10.42,5.56,11.98h1.05c1.87-4.54,4.26-9.85,7.18-15.93l7.78-16.19v21.28c0,4.57-.14,7.16-.43,7.76s-1.12.9-2.5.9h-1.73v1.65c2.67-.12,5.23-.18,7.67-.18,2.22,0,4.54.06,6.96.18v-1.65h-1.5c-1.65,0-2.65-.31-3.01-.94s-.54-3.07-.54-7.33v-19.14c0-3.3.17-5.21.51-5.74s1.28-.8,2.83-.8h1.71v-1.65c-2.69.12-4.55.18-5.58.18-.89,0-2.42-.06-4.61-.18h0Z"/>
      <path d="M780.15,301.93c-6.17,0-11.1,1.75-14.8,5.26-3.7,3.5-5.55,8.13-5.55,13.87,0,3.8.8,7.18,2.38,10.13,1.59,2.95,3.76,5.19,6.5,6.73s6.01,2.31,9.8,2.31c6.06,0,11.08-1.95,15.06-5.87,3.98-3.91,5.97-8.77,5.97-14.58,0-5.39-1.72-9.72-5.15-12.97-3.43-3.25-8.17-4.88-14.21-4.88h0ZM792.24,330.57c-1.16,2.46-2.75,4.31-4.79,5.55-2.03,1.24-4.39,1.86-7.1,1.86-2.92,0-5.51-.73-7.78-2.19s-4.08-3.64-5.44-6.57c-1.35-2.93-2.03-6.36-2.03-10.3,0-2.97.58-5.58,1.73-7.84s2.74-3.97,4.77-5.14,4.44-1.76,7.24-1.76c3.05,0,5.7.67,7.94,1.99,2.23,1.33,4,3.3,5.28,5.93,1.29,2.63,1.93,5.79,1.93,9.49s-.58,6.52-1.74,8.98h-.01Z"/>
      <path d="M836.11,337.82c-.3-.16-.89-.8-1.78-1.91l-5.03-6.52c-2.53-3.27-4.65-6.12-6.36-8.59,3.37-.7,5.94-1.99,7.71-3.88s2.66-4.06,2.66-6.52c0-1.67-.41-3.12-1.22-4.32s-2-2.12-3.56-2.76c-1.57-.64-3.86-.96-6.87-.96-1.1,0-2.9.04-5.42.13-2.17.09-3.82.13-4.98.13-1.71,0-4.19-.06-7.43-.18v1.65h1.41c1.78,0,2.83.33,3.16.97.32.64.48,3.67.48,9.08v12.59c0,6.23-.14,9.68-.42,10.33-.28.66-1.17.98-2.67.98h-1.96v1.65c3.93-.12,6.64-.18,8.14-.18,1.9,0,4.3.06,7.2.18v-1.65h-2.04c-1.62,0-2.58-.34-2.88-1.01s-.44-4.09-.44-10.25v-12.64c0-3.16.1-6.12.31-8.9,1.85-.68,3.7-1.02,5.53-1.02,2.64,0,4.65.64,6.05,1.9,1.4,1.27,2.09,3.02,2.09,5.27,0,2.51-.82,4.52-2.47,6.02-1.65,1.5-3.93,2.25-6.85,2.25-.49,0-1.24-.05-2.25-.13l-.26.89c1.97,2.2,3.82,4.45,5.55,6.75l9.27,12.51c1.1-.12,2.14-.18,3.14-.18,1.09,0,2.35.06,3.8.18v-1.65h-.68c-.32,0-.62-.08-.91-.23l-.02.02Z"/>
      <path d="M873.48,337.82c-.3-.16-.89-.8-1.78-1.91l-5.03-6.52c-2.53-3.27-4.65-6.12-6.36-8.59,3.37-.7,5.94-1.99,7.71-3.88s2.66-4.06,2.66-6.52c0-1.67-.41-3.12-1.22-4.32s-2-2.12-3.56-2.76c-1.57-.64-3.86-.96-6.87-.96-1.1,0-2.9.04-5.42.13-2.17.09-3.82.13-4.98.13-1.71,0-4.19-.06-7.43-.18v1.65h1.41c1.78,0,2.83.33,3.16.97.32.64.48,3.67.48,9.08v12.59c0,6.23-.14,9.68-.42,10.33-.28.66-1.17.98-2.67.98h-1.96v1.65c3.93-.12,6.64-.18,8.14-.18,1.9,0,4.3.06,7.2.18v-1.65h-2.04c-1.62,0-2.58-.34-2.88-1.01s-.44-4.09-.44-10.25v-12.64c0-3.16.1-6.12.31-8.9,1.85-.68,3.7-1.02,5.53-1.02,2.64,0,4.65.64,6.05,1.9,1.4,1.27,2.09,3.02,2.09,5.27,0,2.51-.82,4.52-2.47,6.02-1.65,1.5-3.93,2.25-6.85,2.25-.49,0-1.24-.05-2.25-.13l-.26.89c1.97,2.2,3.82,4.45,5.55,6.75l9.27,12.51c1.1-.12,2.14-.18,3.14-.18,1.09,0,2.35.06,3.8.18v-1.65h-.68c-.32,0-.62-.08-.91-.23l-.02.02Z"/>
      <path d="M898.59,301.93c-6.17,0-11.1,1.75-14.8,5.26-3.7,3.5-5.55,8.13-5.55,13.87,0,3.8.8,7.18,2.38,10.13,1.59,2.95,3.76,5.19,6.5,6.73s6.01,2.31,9.8,2.31c6.06,0,11.08-1.95,15.06-5.87,3.98-3.91,5.97-8.77,5.97-14.58,0-5.39-1.72-9.72-5.15-12.97-3.43-3.25-8.17-4.88-14.21-4.88h0ZM910.68,330.57c-1.16,2.46-2.75,4.31-4.79,5.55-2.03,1.24-4.39,1.86-7.1,1.86-2.92,0-5.51-.73-7.78-2.19s-4.08-3.64-5.44-6.57-2.03-6.36-2.03-10.3c0-2.97.58-5.58,1.73-7.84,1.15-2.26,2.74-3.97,4.77-5.14s4.44-1.76,7.24-1.76c3.05,0,5.7.67,7.94,1.99,2.23,1.33,4,3.3,5.28,5.93,1.29,2.63,1.93,5.79,1.93,9.49s-.58,6.52-1.74,8.98h-.01Z"/>
      <path d="M968.23,302.63c-1.39,0-3.32-.06-5.77-.18v1.65l2.38.19c1.03.1,1.67.23,1.94.39.26.16.39.39.39.7,0,.26-.05.59-.16,1-1.12,4.52-1.91,7.57-2.36,9.16l-4.79,16.58-6.33-17.75c-1.75-4.94-3.14-9.02-4.18-12.25h-1.6c-2.71,7.21-4.58,12.09-5.61,14.66l-6.08,14.97-3.72-16.65-1.81-8.69c-.09-.37-.13-.69-.13-.97,0-.47.18-.81.53-1.02.36-.21,1.13-.32,2.32-.32h1.65v-1.65c-3,.12-5.39.18-7.15.18s-3.97-.06-6.47-.18v1.65h1.1c1.1,0,1.82.18,2.17.52.35.35.74,1.48,1.18,3.41l4.57,19.58c.51,2.15.95,4.17,1.34,6.08l1.39,6.43h2.63c1.41-4.52,3.58-10.32,6.52-17.41l4.89-11.86,4.31,11.78c2.81,7.66,4.59,12.62,5.37,14.87.21.57.47,1.45.79,2.62h2.67c1.83-7.4,4.13-15.6,6.9-24.61,2.1-6.75,3.42-10.41,3.98-10.99.3-.28.74-.42,1.34-.42h1.36v-1.65c-2.21.12-4.07.18-5.57.18h0Z"/>
    </g>
    <g>
      <path class="st0" d="M499.79,16.51c-8.15-4.2-18.63-6.3-31.45-6.3s-24.23,2.19-32.7,6.56c-8.47,4.38-15.1,10.65-19.87,18.82-4.78,8.17-7.17,18.09-7.17,29.76,0,16.7,4.93,29.81,14.79,39.34,9.86,9.53,24.07,14.29,42.62,14.29,12.27,0,22.8-2.35,31.57-7.05,8.78-4.7,15.58-11.34,20.4-19.91,4.83-8.58,7.24-18.75,7.24-30.51,0-10.86-2.2-20.03-6.6-27.5-4.4-7.47-10.68-13.3-18.82-17.5h0ZM493.04,99.63c-6.01,7.48-14.07,11.21-24.18,11.21-8.1,0-14.68-1.65-19.73-4.94-5.06-3.3-9.22-8.68-12.49-16.16-3.27-7.47-4.9-16.6-4.9-27.37,0-14.95,2.98-26.02,8.94-33.22s14.37-10.8,25.23-10.8c11.62,0,20.22,3.45,25.8,10.34,6.89,8.56,10.34,20.84,10.34,36.84s-3.01,26.61-9.02,34.09h0Z"/>
      <path class="st0" d="M634.32,104.65l-12.53-18.56-16.06-24.21c8.65-3.51,14.72-7.54,18.22-12.09,3.5-4.54,5.24-9.83,5.24-15.86,0-4.72-1.1-8.82-3.28-12.31-2.19-3.49-5.16-6.03-8.9-7.61-3.75-1.58-9.72-2.37-17.92-2.37l-37.79.53c-3.02,0-9.73-.18-20.14-.53v6.34c5.68.6,8.93,1.16,9.73,1.66.6.35,1.01.86,1.21,1.51.76,2.16,1.23,8.05,1.44,17.65.2,12.87.3,23.49.3,31.83,0,6.19-.12,14.66-.37,25.42-.2,6.94-.56,11.01-1.06,12.22-.25.65-.65,1.13-1.21,1.43-.85.45-4.2.93-10.03,1.43v6.34c8.54-.35,16.52-.53,23.95-.53,6.98,0,14.99.18,24.02.53v-6.34c-5.75-.3-9.15-.75-10.2-1.36-.8-.4-1.35-.93-1.65-1.59-.4-.91-.8-5.11-1.2-12.61-.5-9.97-.75-18.14-.75-24.54l.64-28.24.49-22.27c3.88-.35,6.96-.53,9.22-.53,7.16,0,12.53,1.69,16.11,5.06,3.57,3.37,5.37,8.11,5.37,14.21,0,7-2.27,12.39-6.79,16.17-4.53,3.78-9.12,5.67-13.8,5.67-.96,0-2.44-.12-4.45-.38-.3.95-.68,1.86-1.13,2.72l15.54,23.61c8.7,13.28,15.24,23.41,19.61,30.4,3.67-.2,11.89-.35,24.66-.45l4.45-.08v-5.81c-2.62-.05-4.5-.39-5.66-1.02-1.15-.63-2.91-2.45-5.28-5.47v.03Z"/>
      <path class="st0" d="M657.21,11.64v6.34c6.54.4,10.36.88,11.47,1.43.75.4,1.28,1.04,1.58,1.92s.5,5.82.6,14.82c.2,13.17.3,23.23.3,30.17,0,18.1-.2,30.48-.6,37.11-.2,3.17-.75,5.16-1.65,5.96s-4.8,1.38-11.7,1.73v6.34l25.42-.53c4.43,0,9.46.1,15.09.3l8.91.23v-6.34c-5.99-.4-9.47-.79-10.45-1.17-.98-.38-1.62-.89-1.92-1.55-.76-1.46-1.21-6.05-1.36-13.77-.15-7.72-.22-21.38-.22-41,0-14.74.2-24.52.6-29.34.25-2.46.82-4.04,1.71-4.71.88-.68,4.77-1.22,11.65-1.62v-6.34c-7.65.35-16.19.53-25.65.53-5.48,0-13.41-.18-23.76-.53l-.02.02Z"/>
      <path class="st0" d="M813.61,16.51c-8.15-4.2-18.63-6.3-31.45-6.3s-24.23,2.19-32.7,6.56c-8.47,4.38-15.1,10.65-19.87,18.82-4.78,8.17-7.17,18.09-7.17,29.76,0,16.7,4.93,29.81,14.79,39.34,9.86,9.53,24.07,14.29,42.62,14.29,12.27,0,22.8-2.35,31.57-7.05,8.78-4.7,15.58-11.34,20.4-19.91,4.83-8.58,7.24-18.75,7.24-30.51,0-10.86-2.2-20.03-6.6-27.5-4.4-7.47-10.68-13.3-18.82-17.5h-.01ZM806.86,99.63c-6.01,7.48-14.07,11.21-24.18,11.21-8.1,0-14.68-1.65-19.73-4.94-5.06-3.3-9.22-8.68-12.49-16.16-3.27-7.47-4.9-16.6-4.9-27.37,0-14.95,2.98-26.02,8.94-33.22s14.37-10.8,25.23-10.8c11.62,0,20.22,3.45,25.8,10.34,6.89,8.56,10.34,20.84,10.34,36.84s-3.01,26.61-9.02,34.09h.01Z"/>
      <path class="st0" d="M953.61,12.02c-5.42,0-10.86-.12-16.33-.38v6.34c6.23.45,9.75.81,10.56,1.06.8.25,1.35.68,1.65,1.28.6,1.11,1.01,4.11,1.21,9,.25,8.22.38,18,.38,29.34v29.94c-7.07-7.56-15.48-17.13-25.22-28.73-14.64-17.34-27.78-33.41-39.39-48.23-5.33.25-10.08.38-14.25.38-3.78,0-9.6-.12-17.47-.38v6.34c6.6.55,10.4,1.13,11.4,1.73.66.35,1.13.91,1.43,1.66.55,1.31.82,6.19.82,14.63l.15,31.91c0,6.14-.14,15.24-.4,27.31-.14,7.29-.48,11.54-1.04,12.75-.35.91-.88,1.56-1.58,1.96-1.06.55-4.65.95-10.79,1.21v6.34c9.57-.35,15.8-.53,18.71-.53,3.51,0,9.31.18,17.43.53v-6.34c-6.28-.45-9.91-.95-10.86-1.51-.55-.3-.93-.73-1.13-1.28-.55-1.26-.91-6.03-1.05-14.32-.25-11.25-.38-20.88-.38-28.87v-29.32c5.68,7.49,13.15,16.71,22.41,27.66,18.31,21.66,33.92,39.65,46.85,53.97,2.52.35,6.85,1.08,12.96,2.19l.98-1.06c-.35-8.15-.53-16.29-.53-24.44l.15-30.4.28-30.17c.06-6.54.27-10.41.62-11.62.2-.7.5-1.28.9-1.73s.93-.8,1.58-1.06c1.15-.45,4.53-.86,10.13-1.21v-6.34c-6.02.25-12.75.38-20.18.38h0Z"/>
    </g>
  </g>
  <g>
    <path class="st0" d="M350.44,345.37V0H0v350.44h350.44v-5.07ZM10.16,345.37V5.1l-5.14,5.14h340.31l-5.07-5.14v340.26l5.07-5.1H5.02l5.14,5.1h0Z"/>
    <path class="st0" d="M37.43,127.9h275.08s-23.51-92.76-132.92-100.02c-7.75-.48-107.64-1.1-142.15,100.02h0Z"/>
    <path class="st0" d="M35.78,216.78h278.34s-27.91,103.34-136.73,104.37c-7.06.1-106.62,2.26-141.61-104.37Z"/>
    <g>
      <path class="st0" d="M64.93,201.51c-9.43,0-16.63-2.6-21.65-7.68-5.03-5.22-7.5-12.25-7.5-21.31,0-6.29,1.2-11.66,3.63-16.02,2.38-4.47,5.74-7.83,10.09-10.23,4.31-2.31,9.86-3.53,16.64-3.53s11.86,1.16,15.96,3.4c4.14,2.26,7.37,5.41,9.58,9.49,2.27,3.97,3.38,8.97,3.38,14.87,0,6.31-1.26,11.78-3.66,16.46-2.49,4.62-5.96,8.17-10.39,10.75-4.49,2.52-9.82,3.79-16.08,3.79h0ZM66.39,197.11c5.12,0,9.21-2.05,12.27-6.06,3.02-4.07,4.54-10.18,4.54-18.37,0-8.71-1.75-15.23-5.21-19.91-2.86-3.72-7.21-5.59-13.07-5.59-5.5,0-9.8,1.93-12.83,5.85-2.96,3.85-4.47,9.84-4.47,17.9,0,5.82.77,10.75,2.4,14.8,1.69,4.02,3.8,6.9,6.35,8.7,2.57,1.81,5.89,2.68,10.01,2.68h0Z"/>
      <path class="st0" d="M101.1,200.67v-3.3c2.88-.22,4.56-.49,4.96-.8.26-.13.49-.35.58-.75.27-.63.45-2.82.55-6.62.12-5.8.13-10.46.13-13.79,0-4.55-.01-10.27-.11-17.27-.09-5.22-.41-8.42-.72-9.57-.08-.37-.3-.62-.58-.82-.42-.25-1.99-.59-4.82-.91v-3.23c5.29.18,8.72.29,10.21.29l19.25-.29c4.16,0,7.19.39,9.07,1.26,1.96.8,3.48,2.16,4.55,4.08,1.05,1.88,1.65,4.08,1.65,6.62,0,3.24-.89,6.12-2.7,8.53-1.78,2.51-4.89,4.64-9.32,6.5l8.2,13.05,6.37,9.98c1.18,1.77,2.09,2.81,2.68,3.19.61.34,1.55.53,2.87.55v2.99l-2.22.06c-6.49.09-10.56.14-12.43.25-2.28-3.77-5.6-9.24-10.11-16.38l-7.98-12.77c.26-.49.41-.92.6-1.47,1.01.14,1.79.18,2.32.18,2.4,0,4.72-1.02,7.13-2.98,2.34-2.04,3.47-4.93,3.47-8.66,0-3.23-.9-5.74-2.75-7.55-1.82-1.77-4.63-2.69-8.33-2.69-1.12,0-2.72.11-4.73.33l-.25,11.98-.33,15.21c0,3.43.1,7.79.39,13.23.18,3.98.4,6.25.65,6.72.12.36.4.63.79.87.52.34,2.29.53,5.17.69v3.3c-4.56-.16-8.59-.31-12.15-.31s-7.78.15-12.07.31h.01Z"/>
      <path class="st0" d="M157.71,200.67v-3.3c3.47-.16,5.47-.49,5.84-.94.46-.41.76-1.49.85-3.2.2-3.59.3-10.37.3-20.14,0-3.79,0-9.22-.15-16.36-.07-4.9-.15-7.56-.31-8.07-.12-.47-.46-.8-.77-1.05-.55-.31-2.51-.59-5.76-.78v-3.23c5.23.18,9.25.29,11.99.29,4.83,0,9.12-.12,12.97-.29v3.23c-3.47.19-5.41.56-5.83.9-.48.4-.76,1.21-.92,2.57-.12,2.62-.23,7.92-.23,15.9,0,10.67.03,18.09.1,22.27.06,4.15.29,6.64.71,7.5.14.26.48.58.92.83.51.17,2.24.37,5.25.58v3.3l-4.5-.12c-2.81-.11-5.38-.19-7.63-.19l-12.83.31h0Z"/>
      <path class="st0" d="M217.78,201.51c-9.44,0-16.65-2.6-21.64-7.68-5.04-5.22-7.53-12.25-7.53-21.31,0-6.29,1.24-11.66,3.64-16.02,2.41-4.47,5.83-7.83,10.1-10.23,4.31-2.31,9.85-3.53,16.63-3.53s11.82,1.16,15.99,3.4c4.13,2.26,7.34,5.41,9.52,9.49,2.29,3.97,3.39,8.97,3.39,14.87,0,6.31-1.24,11.78-3.7,16.46-2.42,4.62-5.86,8.17-10.36,10.75-4.41,2.52-9.78,3.79-16.05,3.79h0ZM219.21,197.11c5.15,0,9.25-2.05,12.3-6.06,3.03-4.07,4.56-10.18,4.56-18.37,0-8.71-1.75-15.23-5.27-19.91-2.78-3.72-7.16-5.59-13.03-5.59-5.51,0-9.78,1.93-12.78,5.85-3.03,3.85-4.57,9.84-4.57,17.9,0,5.82.87,10.75,2.5,14.8,1.66,4.02,3.79,6.9,6.33,8.7,2.55,1.81,5.9,2.68,9.96,2.68Z"/>
      <path class="st0" d="M253.63,200.67v-3.3c3.13-.1,5-.31,5.53-.6.34-.22.58-.61.77-1.09.3-.63.46-2.99.56-6.95.1-6.51.17-11.48.17-14.81l-.07-17.32c0-4.52-.15-7.18-.45-7.92-.15-.39-.4-.71-.73-.88-.48-.29-2.43-.63-5.79-.96v-3.23c4.06.18,7.04.29,8.89.29,2.18,0,4.6-.12,7.34-.29,5.96,7.95,12.63,16.61,20.08,25.96,5.01,6.3,9.28,11.44,12.87,15.57v-16.24c0-6.13,0-11.44-.09-15.9-.14-2.65-.32-4.26-.66-4.86-.1-.34-.4-.56-.82-.72-.44-.14-2.22-.32-5.41-.58v-3.23c2.76.18,5.48.29,8.16.29,3.74,0,7.1-.12,10.13-.29v3.23c-2.81.18-4.53.41-5.06.66-.38.12-.63.33-.86.59-.13.25-.31.58-.4.92-.23.66-.29,2.74-.31,6.3l-.09,16.26-.05,16.44c0,4.42.02,8.79.16,13.2l-.47.56c-3.06-.66-5.28-.99-6.56-1.2-6.59-7.71-14.54-17.41-23.86-29.04-4.69-5.89-8.49-10.87-11.41-14.87v15.86c0,4.3,0,9.52.12,15.61.09,4.49.26,7.07.57,7.74.08.35.28.51.53.7.46.31,2.32.58,5.49.8v3.3c-4.1-.16-7.08-.31-8.81-.31-1.43,0-4.63.15-9.49.31h.02Z"/>
    </g>
  </g>
</svg>