<svg width="136" height="61" viewBox="0 0 136 61" fill="none" xmlns="http://www.w3.org/2000/svg">
<g clip-path="url(#clip0_2395_38782)">
<g clip-path="url(#clip1_2395_38782)">
<path d="M64.481 21.284C63.445 20.3271 62.9302 18.8698 62.9302 16.9246V8.42479C62.9302 8.27468 62.9736 8.14959 63.0666 8.04952C63.1535 7.95571 63.2776 7.90567 63.4264 7.90567H65.3308C65.4797 7.90567 65.61 7.95571 65.703 8.04952C65.8023 8.14959 65.8457 8.27468 65.8457 8.42479V16.9246C65.8457 18.0254 66.1062 18.851 66.6211 19.4077C67.136 19.9643 67.8741 20.2458 68.8232 20.2458C69.7785 20.2458 70.5105 19.9643 71.0254 19.4077C71.5402 18.851 71.8008 18.0254 71.8008 16.9246V8.42479C71.8008 8.27468 71.8504 8.14959 71.9435 8.04952C72.0427 7.95571 72.1668 7.90567 72.3156 7.90567H74.22C74.3689 7.90567 74.493 7.95571 74.5798 8.04952C74.6667 8.14959 74.7163 8.27468 74.7163 8.42479V16.9246C74.7163 18.8698 74.2014 20.3271 73.1717 21.284C72.142 22.2472 70.6966 22.7225 68.8356 22.7225C66.9685 22.7288 65.5169 22.2472 64.481 21.284Z" fill="white"/>
<path d="M77.9791 22.3723C77.8799 22.2785 77.8364 22.1596 77.8364 22.0158V8.42479C77.8364 8.27468 77.8798 8.14334 77.9729 8.04952C78.0597 7.95571 78.1838 7.90567 78.3327 7.90567H79.9455C80.2061 7.90567 80.4046 8.02451 80.5472 8.26218L86.4713 17.5313V8.42479C86.4713 8.27468 86.5147 8.14334 86.6078 8.04952C86.7008 7.95571 86.8187 7.90567 86.9738 7.90567H88.7541C88.903 7.90567 89.0332 7.95571 89.1263 8.04952C89.2255 8.14959 89.269 8.27468 89.269 8.42479V21.997C89.269 22.1471 89.2193 22.2785 89.1263 22.3723C89.027 22.4724 88.9092 22.5162 88.7727 22.5162H87.1351C86.8559 22.5162 86.6512 22.3973 86.5147 22.1596L80.6155 13.0969V22.0158C80.6155 22.1534 80.5721 22.2722 80.479 22.3723C80.386 22.4724 80.2681 22.5162 80.1192 22.5162H78.3389C78.19 22.5162 78.0722 22.4661 77.9791 22.3723Z" fill="white"/>
<path d="M92.6187 22.3723C92.5195 22.2785 92.4761 22.1596 92.4761 22.0158V8.40603C92.4761 8.25592 92.5257 8.13083 92.6187 8.04327C92.7118 7.95571 92.8297 7.90567 92.9723 7.90567H94.9574C95.1063 7.90567 95.2303 7.94945 95.3172 8.04327C95.404 8.13083 95.4536 8.25592 95.4536 8.40603V22.0158C95.4536 22.1534 95.4102 22.2722 95.3172 22.3723C95.2241 22.4724 95.1063 22.5162 94.9574 22.5162H92.9723C92.8297 22.5162 92.7118 22.4661 92.6187 22.3723Z" fill="white"/>
<path d="M102.016 22.3723C101.917 22.2785 101.874 22.1597 101.874 22.0158V10.5138H98.0402C97.9037 10.5138 97.7859 10.4638 97.6866 10.37C97.5874 10.2762 97.5439 10.1448 97.5439 9.99472V8.43109C97.5439 8.28099 97.5874 8.14964 97.6804 8.05583C97.7673 7.96201 97.8913 7.91197 98.0402 7.91197H108.623C108.772 7.91197 108.902 7.96201 108.995 8.05583C109.088 8.1559 109.138 8.28099 109.138 8.43109V9.99472C109.138 10.1511 109.088 10.2762 108.995 10.37C108.896 10.4701 108.772 10.5138 108.623 10.5138H104.814V22.0158C104.814 22.1534 104.771 22.2723 104.678 22.3723C104.591 22.4724 104.467 22.5162 104.318 22.5162H102.37C102.227 22.5162 102.11 22.4662 102.016 22.3723Z" fill="white"/>
<path d="M111.371 22.3723C111.272 22.2785 111.229 22.1596 111.229 22.0158V8.42479C111.229 8.27468 111.272 8.14334 111.365 8.04952C111.452 7.95571 111.576 7.90567 111.725 7.90567H120.856C121.005 7.90567 121.129 7.95571 121.228 8.04952C121.327 8.14959 121.371 8.27468 121.371 8.42479V9.8258C121.371 9.98216 121.321 10.101 121.228 10.1886C121.129 10.2761 121.005 10.3262 120.856 10.3262H114.063V13.9788H120.397C120.552 13.9788 120.676 14.0288 120.769 14.1226C120.868 14.2227 120.912 14.3478 120.912 14.4979V15.8113C120.912 15.9614 120.862 16.0865 120.769 16.1741C120.67 16.2679 120.546 16.3117 120.397 16.3117H114.063V20.0894H121.017C121.166 20.0894 121.296 20.1332 121.389 20.227C121.489 20.3208 121.532 20.4397 121.532 20.5898V22.0095C121.532 22.1596 121.482 22.2847 121.389 22.3723C121.29 22.4599 121.166 22.5099 121.017 22.5099H111.719C111.588 22.5161 111.47 22.4661 111.371 22.3723Z" fill="white"/>
<path d="M124.274 22.3723C124.174 22.2785 124.131 22.1596 124.131 22.0158V8.42479C124.131 8.27468 124.174 8.14334 124.267 8.04952C124.354 7.95571 124.478 7.90567 124.627 7.90567H129.677C133.746 7.90567 135.824 9.80078 135.911 13.5847C135.936 14.3916 135.954 14.9357 135.954 15.2109C135.954 15.4736 135.942 16.0115 135.911 16.8183C135.855 18.7635 135.334 20.202 134.348 21.1277C133.361 22.0533 131.841 22.5162 129.782 22.5162H124.627C124.484 22.5162 124.367 22.4661 124.274 22.3723ZM129.677 20.0957C130.824 20.0957 131.649 19.8392 132.158 19.3264C132.666 18.8135 132.939 17.9566 132.964 16.7558C132.989 15.9177 133.008 15.3985 133.008 15.1921C133.008 14.9732 132.995 14.4541 132.964 13.6473C132.939 12.509 132.654 11.6646 132.114 11.133C131.575 10.5951 130.725 10.3262 129.565 10.3262H127.04V20.0957H129.677Z" fill="white"/>
<path d="M66.6707 41.1421C65.6162 40.1539 65.0517 38.7779 64.9835 37.0079C64.971 36.6013 64.9648 35.9571 64.9648 35.069C64.9648 34.1808 64.971 33.5304 64.9835 33.1301C65.0393 31.4038 65.6038 30.0529 66.6831 29.0709C67.7625 28.089 69.2389 27.6011 71.1122 27.6011C72.3839 27.6011 73.4757 27.82 74.3937 28.2578C75.3118 28.6956 76.0066 29.2398 76.4718 29.884C76.9433 30.5345 77.1914 31.1662 77.2162 31.7916C77.2162 31.9167 77.1728 32.023 77.0921 32.1043C77.0115 32.1856 76.8998 32.2294 76.7634 32.2294H74.586C74.4496 32.2294 74.3441 32.1982 74.2759 32.1481C74.2076 32.0918 74.1456 32.0043 74.0898 31.8792C73.8975 31.3663 73.5563 30.9285 73.0724 30.5657C72.5886 30.203 71.9311 30.0216 71.106 30.0216C70.1383 30.0216 69.3815 30.2843 68.8356 30.8034C68.2898 31.3225 68.0044 32.1356 67.9734 33.2364C67.961 33.6429 67.9548 34.2496 67.9548 35.0752C67.9548 35.882 67.961 36.495 67.9734 36.914C67.9982 38.0398 68.2898 38.8717 68.8419 39.4096C69.3939 39.9475 70.1507 40.2164 71.1184 40.2164C72.0985 40.2164 72.8864 39.9537 73.4757 39.4221C74.0712 38.8905 74.3627 38.1024 74.3627 37.0454V36.3949H71.838C71.7015 36.3949 71.5837 36.3449 71.4844 36.2511C71.3852 36.1572 71.3417 36.0384 71.3417 35.8946V34.7437C71.3417 34.6061 71.3914 34.4873 71.4844 34.3872C71.5837 34.2872 71.6953 34.2434 71.838 34.2434H76.8068C76.9557 34.2434 77.0859 34.2934 77.179 34.3872C77.272 34.4873 77.3217 34.6061 77.3217 34.7437V36.9578C77.3217 38.1149 77.0673 39.1156 76.5525 39.9725C76.0438 40.8293 75.318 41.4861 74.3751 41.9426C73.4384 42.3992 72.3405 42.6306 71.0812 42.6306C69.2078 42.6244 67.7315 42.1303 66.6707 41.1421Z" fill="white"/>
<path d="M80.1192 42.2677C80.02 42.1739 79.9766 42.0488 79.9766 41.9112V28.3264C79.9766 28.1763 80.02 28.0512 80.113 27.9511C80.2061 27.8573 80.3239 27.8073 80.4728 27.8073H85.8386C87.5383 27.8073 88.8658 28.2013 89.821 28.9957C90.7825 29.79 91.2602 30.9158 91.2602 32.3793C91.2602 33.3926 91.0183 34.2494 90.5344 34.9374C90.0506 35.6254 89.3744 36.1258 88.506 36.4322L91.5083 41.7548C91.5517 41.8361 91.5703 41.9174 91.5703 41.9862C91.5703 42.1113 91.5269 42.2176 91.4339 42.299C91.3408 42.3803 91.2416 42.424 91.1361 42.424H89.2317C89.0084 42.424 88.8409 42.374 88.7169 42.2677C88.5928 42.1614 88.4811 42.03 88.3819 41.8611L85.7331 36.9138H82.8983V41.9237C82.8983 42.0613 82.8486 42.1801 82.7556 42.2802C82.6563 42.3803 82.5323 42.424 82.3834 42.424H80.479C80.3363 42.4178 80.2185 42.3678 80.1192 42.2677ZM85.7704 34.5246C86.5954 34.5246 87.2219 34.3432 87.6313 33.9742C88.0469 33.6052 88.2516 33.0673 88.2516 32.3543C88.2516 31.6413 88.0469 31.0972 87.6313 30.7156C87.2157 30.3341 86.5954 30.1402 85.7704 30.1402H82.8921V34.5246C82.8921 34.5246 85.7704 34.5246 85.7704 34.5246Z" fill="white"/>
<path d="M95.0684 41.1858C94.0201 40.2289 93.468 38.7966 93.4122 36.9077C93.3998 36.5074 93.3936 35.9133 93.3936 35.1315C93.3936 34.3371 93.3998 33.743 93.4122 33.3364C93.468 31.4851 94.0325 30.0653 95.1118 29.0771C96.1912 28.0889 97.6428 27.5948 99.4789 27.5948C101.303 27.5948 102.754 28.0889 103.84 29.0771C104.925 30.0653 105.49 31.4851 105.546 33.3364C105.57 34.1433 105.589 34.7437 105.589 35.1315C105.589 35.5067 105.577 36.1009 105.546 36.9077C105.49 38.8028 104.938 40.2289 103.877 41.1858C102.822 42.149 101.352 42.6243 99.4789 42.6243C97.5869 42.6243 96.1168 42.1427 95.0684 41.1858ZM101.675 39.3657C102.215 38.8091 102.5 37.9522 102.543 36.7952C102.568 35.9633 102.587 35.3942 102.587 35.1064C102.587 34.7875 102.574 34.2246 102.543 33.4177C102.5 32.2794 102.202 31.4226 101.656 30.8596C101.104 30.2967 100.378 30.0153 99.4789 30.0153C98.567 30.0153 97.8351 30.2967 97.283 30.8596C96.7309 31.4226 96.4393 32.2732 96.4145 33.4177C96.4021 33.8243 96.3959 34.3872 96.3959 35.1064C96.3959 35.8195 96.4021 36.3824 96.4145 36.7952C96.4393 37.9397 96.7309 38.7903 97.2768 39.3532C97.8227 39.9161 98.5546 40.1976 99.4789 40.1976C100.403 40.2038 101.135 39.9224 101.675 39.3657Z" fill="white"/>
<path d="M109.709 41.1856C108.673 40.2287 108.158 38.7714 108.158 36.82V28.3264C108.158 28.1763 108.201 28.0512 108.294 27.9511C108.381 27.8511 108.505 27.8073 108.654 27.8073H110.558C110.707 27.8073 110.837 27.8573 110.931 27.9511C111.024 28.045 111.073 28.1763 111.073 28.3264V36.82C111.073 37.9208 111.334 38.7464 111.849 39.303C112.363 39.8597 113.102 40.1411 114.051 40.1411C115.006 40.1411 115.738 39.8597 116.253 39.303C116.768 38.7464 117.028 37.9208 117.028 36.82V28.3264C117.028 28.1763 117.078 28.0512 117.171 27.9511C117.27 27.8511 117.394 27.8073 117.543 27.8073H119.448C119.596 27.8073 119.72 27.8573 119.807 27.9511C119.894 28.0512 119.944 28.1763 119.944 28.3264V36.82C119.944 38.7714 119.429 40.2225 118.399 41.1856C117.369 42.1488 115.924 42.6242 114.063 42.6242C112.196 42.6242 110.744 42.1426 109.709 41.1856Z" fill="white"/>
<path d="M123.207 42.2677C123.107 42.1739 123.064 42.0488 123.064 41.9112V28.3264C123.064 28.1763 123.107 28.045 123.2 27.9511C123.293 27.8573 123.411 27.8073 123.56 27.8073H129.112C130.781 27.8073 132.096 28.2013 133.045 28.9957C134 29.79 134.472 30.9471 134.472 32.4606C134.472 33.9617 133.994 35.1 133.045 35.8756C132.09 36.6449 130.781 37.0327 129.112 37.0327H126.066V41.9174C126.066 42.0675 126.017 42.1926 125.924 42.2802C125.824 42.3677 125.7 42.4178 125.551 42.4178H123.56C123.418 42.4178 123.3 42.3677 123.207 42.2677ZM129 34.6935C129.801 34.6935 130.409 34.5059 130.83 34.1181C131.252 33.7366 131.463 33.1736 131.463 32.4356C131.463 31.7101 131.258 31.1472 130.855 30.7469C130.446 30.3466 129.832 30.1402 129 30.1402H126.017V34.6935H129Z" fill="white"/>
<path d="M117.444 51.5621H81.4341V52.9944H117.444V51.5621Z" fill="white"/>
<path d="M26.7468 59.637C30.3881 59.6682 34.0728 58.8239 37.5404 57.1664C46.808 52.7383 51.7333 45.2704 51.7458 34.7504V2.10821C51.4108 2.08944 50.9828 2.07693 50.6602 2.07693C48.5945 2.08944 46.7087 2.57729 44.854 3.24652C37.3729 5.93595 32.5282 12.9034 32.5468 20.8842V36.0325C32.553 38.4655 32.1932 40.8172 31.1945 43.0563C28.5395 49.0106 22.6527 51.7813 16.9581 51.8064C14.8676 51.8189 12.7958 51.4874 10.941 50.7556C7.12602 49.242 4.65093 46.5213 2.70312 44.2885C2.70312 44.2885 8.32324 59.4806 26.7468 59.637ZM48.9667 34.7504C48.9605 39.3224 47.9866 43.3128 45.8775 46.6151C43.7622 49.9238 40.5614 52.6194 36.3494 54.6271C33.3284 56.0719 30.0965 56.8099 26.7282 56.8287C23.273 56.8475 19.855 56.0844 16.741 54.6146C16.8154 54.6146 16.8899 54.6146 16.9705 54.6146C24.464 54.5771 30.8843 50.593 33.7316 44.2072C34.8234 41.7554 35.3382 39.0785 35.3258 36.02V20.8779C35.3134 14.0668 39.4076 8.18131 45.7845 5.88592C46.9383 5.47312 48.03 5.19792 48.9605 5.04156V34.7504H48.9667Z" fill="white"/>
<path d="M36.3926 20.8772C36.3988 22.8724 36.3988 24.8675 36.405 26.869C36.4113 29.9212 36.4175 32.9733 36.4237 36.0193C36.4361 39.2341 35.8778 42.0549 34.7178 44.6567C32.3109 50.0544 27.5096 53.8383 21.6538 55.1768C23.3101 55.5583 25.0097 55.7522 26.7218 55.7459C29.9227 55.7272 33.0057 55.0267 35.884 53.6507C39.9099 51.7243 42.9618 49.1662 44.9655 46.0327C46.9629 42.9117 47.881 39.1153 47.8872 34.7559V6.39178C47.3723 6.52938 46.7396 6.70451 46.1503 6.91091C40.2138 9.0562 36.3802 14.5351 36.3926 20.8772ZM45.1206 10.5135V34.7496C45.1144 38.5649 44.3266 41.8485 42.6269 44.5066C40.9086 47.1961 38.2412 49.4164 34.693 51.1114C34.2401 51.3303 33.7811 51.5242 33.3158 51.7055C34.9473 49.9793 36.2872 47.9904 37.2611 45.8138C38.5824 42.8429 39.2089 39.6406 39.1965 36.0193V20.8709C39.1841 16.5053 41.4607 12.6463 45.1206 10.5135Z" fill="white"/>
<path d="M37.0688 48.522C39.0415 47.2023 40.6047 45.6637 41.7151 43.9187C43.3031 41.4357 44.0413 38.346 44.0475 34.7496V12.5963C41.6902 14.6227 40.2635 17.5873 40.2697 20.8709V36.0068C40.2821 39.7845 39.6246 43.1369 38.235 46.2516C37.8939 47.0334 37.5031 47.7902 37.0688 48.522Z" fill="white"/>
<path d="M27.0692 46.7588C26.8024 46.7713 26.5481 46.7713 26.3062 46.7775C22.7207 46.7963 21.846 45.8143 21.8212 42.0116C21.7778 35.8384 21.846 30.3595 21.8212 24.1801C21.784 16.1868 18.1179 10.2576 11.406 6.19842C8.23619 4.2783 4.76859 3.30885 0.947409 3.32761C0.798532 3.32761 0.662061 3.32761 0.513184 3.33387V33.9371C0.519387 34.7501 0.569012 35.5695 0.71789 36.3701C1.98335 43.2562 8.02528 49.1667 14.8798 50.3488C21.8709 51.5622 27.0692 46.7588 27.0692 46.7588ZM3.55276 33.9246V6.59245C5.79212 6.89892 7.82678 7.64321 9.82421 8.85658C12.8266 10.6766 15.0039 12.7969 16.4679 15.3487C17.9318 17.8943 18.7258 20.7901 18.7382 24.1988V42.0304C18.7506 43.8692 19.005 45.8581 20.0409 47.3717C19.4516 47.478 18.8313 47.5343 18.1675 47.5343C17.3053 47.5406 16.3934 47.4593 15.3761 47.2904C9.77459 46.3585 4.76859 41.4174 3.73265 35.8009C3.6396 35.3005 3.55896 34.7001 3.55276 33.9246Z" fill="white"/>
<path d="M15.5746 46.1079C16.5299 46.2643 17.3735 46.3393 18.1676 46.3393C18.1862 46.3393 18.2048 46.3393 18.2172 46.3393C17.7333 44.9258 17.5596 43.3997 17.5472 42.0425V24.1984C17.5162 17.8314 14.824 13.2781 9.21011 9.88816C7.76476 9.01253 6.31321 8.39959 4.75 8.03683V33.9241C4.75 34.6247 4.83064 35.1563 4.90508 35.5816C5.84177 40.6415 10.5252 45.2635 15.5746 46.1079ZM7.833 33.9054V12.6464C10.1158 14.0536 11.71 15.636 12.777 17.4686C13.8625 19.3387 14.4704 21.5465 14.4828 24.2109V42.6241C11.2944 41.417 8.52776 38.2335 7.93225 35.0062C7.88883 34.781 7.833 34.4057 7.833 33.9054Z" fill="white"/>
<path d="M13.298 40.6854V24.2173C13.2794 20.1894 11.9581 17.3124 9.04883 14.9544V33.9055C9.04883 34.4872 9.11706 34.7186 9.12947 34.7937C9.55129 37.0765 11.1889 39.3344 13.298 40.6854Z" fill="white"/>
</g>
</g>
<defs>
<clipPath id="clip0_2395_38782">
<rect width="136" height="61" fill="white"/>
</clipPath>
<clipPath id="clip1_2395_38782">
<rect width="137.172" height="61" fill="white"/>
</clipPath>
</defs>
</svg>
